<svg width="26" height="27" viewBox="0 0 26 27" fill="none" xmlns="http://www.w3.org/2000/svg">
<path d="M9.39453 16.024C9.39453 17.4215 10.467 18.5482 11.7995 18.5482H14.5187C15.6779 18.5482 16.6204 17.5623 16.6204 16.349C16.6204 15.0273 16.0462 14.5615 15.1904 14.2582L10.8245 12.7415C9.9687 12.4382 9.39453 11.9723 9.39453 10.6507C9.39453 9.43733 10.337 8.4515 11.4962 8.4515H14.2154C15.5479 8.4515 16.6204 9.57816 16.6204 10.9757" stroke="#FAFAFA" stroke-width="1.5" stroke-linecap="round" stroke-linejoin="round"/>
<path d="M13 7V20" stroke="#FAFAFA" stroke-width="1.5" stroke-linecap="round" stroke-linejoin="round"/>
<path d="M12.9993 24.3332C18.9824 24.3332 23.8327 19.4829 23.8327 13.4998C23.8327 7.51675 18.9824 2.6665 12.9993 2.6665C7.01626 2.6665 2.16602 7.51675 2.16602 13.4998C2.16602 19.4829 7.01626 24.3332 12.9993 24.3332Z" stroke="#FAFAFA" stroke-width="1.5" stroke-linecap="round" stroke-linejoin="round"/>
</svg>
