<svg width="26" height="26" viewBox="0 0 26 26" fill="none" xmlns="http://www.w3.org/2000/svg">
<path d="M16.8792 12.9997C16.8792 15.1447 15.1459 16.878 13.0009 16.878C10.8559 16.878 9.12256 15.1447 9.12256 12.9997C9.12256 10.8547 10.8559 9.12134 13.0009 9.12134C15.1459 9.12134 16.8792 10.8547 16.8792 12.9997Z" stroke="#FAFAFA" stroke-width="1.5" stroke-linecap="round" stroke-linejoin="round"/>
<path d="M12.9993 21.9592C16.8235 21.9592 20.3877 19.7059 22.8685 15.8059C23.8435 14.2784 23.8435 11.7109 22.8685 10.1834C20.3877 6.28336 16.8235 4.03003 12.9993 4.03003C9.17518 4.03003 5.61101 6.28336 3.13018 10.1834C2.15518 11.7109 2.15518 14.2784 3.13018 15.8059C5.61101 19.7059 9.17518 21.9592 12.9993 21.9592Z" stroke="#FAFAFA" stroke-width="1.5" stroke-linecap="round" stroke-linejoin="round"/>
</svg>
